<?xml version="1.0" standalone="no"?>
<!DOCTYPE svg PUBLIC "-//W3C//DTD SVG 20010904//EN"
 "http://www.w3.org/TR/2001/REC-SVG-20010904/DTD/svg10.dtd">
<svg version="1.0" xmlns="http://www.w3.org/2000/svg"
 width="300.000000pt" height="264.000000pt" viewBox="0 0 300.000000 264.000000"
 preserveAspectRatio="xMidYMid meet">
<metadata>
Created by potrace 1.10, written by Peter Selinger 2001-2011
</metadata>
<g transform="translate(0.000000,264.000000) scale(0.050000,-0.050000)"
fill="#000000" stroke="none">
<path d="M3420 4883 c0 -9 46 -37 102 -62 1052 -476 1502 -1888 893 -2801
-593 -888 -1903 -880 -2330 14 -258 541 20 1164 577 1295 151 36 185 38 168
11 -7 -11 -32 -20 -56 -20 -83 0 -294 -118 -394 -220 -571 -587 -74 -1540 804
-1540 1248 0 1784 1688 833 2624 -708 697 -1817 683 -2627 -33 -129 -114 -109
-134 31 -29 917 690 2294 435 2764 -512 78 -157 155 -425 116 -400 -12 7 -21
29 -21 49 0 68 -176 389 -286 522 -682 825 -2088 715 -2708 -211 -244 -364
-378 -856 -337 -1235 20 -191 43 -167 57 60 66 1106 1190 1987 2180 1708 825
-231 1238 -1053 893 -1775 -369 -774 -1550 -699 -1614 102 -39 486 516 818
809 483 60 -67 76 -113 92 -263 12 -114 99 113 99 260 0 430 -471 725 -954
599 -834 -217 -1109 -1388 -495 -2107 852 -998 2512 -628 3022 673 54 136 23
136 -40 0 -368 -796 -1436 -1250 -2235 -949 -451 170 -848 618 -895 1011 -8
66 -5 63 30 -32 472 -1267 2259 -1224 2845 68 412 909 24 2036 -873 2538 -142
79 -450 197 -450 172z"/>
<path d="M2480 3911 c-1681 -373 -1579 -2790 140 -3283 154 -44 309 -60 190
-19 -1393 480 -1806 2196 -706 2931 599 400 1419 124 1535 -516 104 -569 -508
-1011 -854 -617 -62 71 -75 102 -91 213 -13 96 -58 -59 -49 -170 49 -605 942
-659 1259 -77 448 823 -421 1761 -1424 1538z"/>
</g>
</svg>
